<svg xmlns="http://www.w3.org/2000/svg" width="400" height="600"><g fill-rule="evenodd"><path fill="#886d4e" d="M182 27h2-2m16 0h2-2m-27 0v1c1 0 1 0 0 0v1h-1 2l1-1v-1h-2m37 0v1l2 1h1-1v-1l-1-1h-1m-47 3h-2l-1 1a60 60 0 0 1 1 0l1-1h1m61 1 1 1-2-2 1 1m-2 0 1 2v-1l-1-1m-70 2v1h-1v2-1h1v-1h1c-1 0 0 0 0 0l1-1h-2m76 0 1 1 2 1c0 1 0 1 0 0 1-1 1-1 0 0v-1h-1l-1-1h-1m-83 3v2-2m90 1c2 2 3 2 3 1h-1l-2-1-1-1 1 1m-96 3h-1 1c0-1 0-1 0 0m-4 3h-1l-2 2h2l1-1v-2 1m-6 3v2-1l1-1h1-2m125 9 1 1 1 1c0 1 0 1 0 0v-2 1h-1v-1h-1m4 7 1 1v-1h-1m-147 4-1 2 1-1 1-2-1 1m1 0v1l1-1h-1m162 3 1 1-1-2v1m-2 0 2 1-1-1h-1m8 2v1h1c1 0 0 0 0 0v-1h-1c0-1 0-1 0 0m-173 0v1h1v-1h-1m179 3h-1l2 1c0 1 0 1 0 0v-1h-1 1-1m-181 3-1 1h1l1-1-1 2-1 1 3-3h-2m191 7v2l1-1c0-1 0 0 0 0l-1-1h-1 1m-194 3-1 1h1l1-1v-1l-1 1m0 2-1 2c0 1 0 1 0 0l2-2 1-1-2 1m-1 6v1-2 1m158 0-1 21c0 23 1 25 2 31l2 5v9a56 56 0 0 1-7 31 69 69 0 0 1-16 18 47 47 0 0 1-41 11 91 91 0 0 1-35-16c-6-4-13-13-17-21l-3-4h-4c-7 3-22-8-25-18-1-5 0-16 1-18 7-9 16-6 28 8 2 3 4 4 6 1l1-3a70 70 0 0 0 10-32v-4l-1-2c-2-1-4-2-6-1l-2 1 1 4-2 15-2 6-2 4-2 2-1-2-1-1-2-2-1-1-2-2-3-2-3-1c-1-1-6-2-10-1-2 0-4
0-3-2l-6 1-3 1-2 2h-2v1h-1v1c0 3 0 4 2 4s1 3-1 3l-1 1v24c2 1 3 2 3
4v2h3v2l1 1 2 1c0 2 0 3 2 3l1 1c0 2 0 2 2 2l1 1c0 1 1 2 4
2h3v1c0 2 1 2 8 2h4v2c0 3 1 4 2 4l1 2c0 3 1 4 2 4l1 2v2h-4c-5 0-5
0-5 2l-4 1c-4 0-5 0-5 2l-3 1c-2 0-3 1-3 2l-2 1-2 2-2 1c-3 1-4 1-4
3h-1l-2 2c0 1 0 2-2 2l-1 1-2 2-2 1-1 2c-1 0-2 0-2 2l-1 1-2 1-1 2c-2
0-2 0-2 2l-1 1c-2 0-2 0-2 2l-1 1-2 2-1 2c-2 0-2 2-2 5l-2 1-1 1-2 2-1
2-1 2c-2 0-3 2-3 4v1c-2 0-3 1-3 3l-2 4-1 1-1 2c-2 1-2 1-2 6l-1 3c-2
0-2 1-2 11 0 9 0 10 2 10l1 2c0 4 0 5 2 5h1v2c0 3 0 4 2 4l1 3 2 3 1 2
v1h4v3c0 2 0 3 2 4l1 1c0 2 0 2 2 2l1 1c0 1 0 2 2 2l1 3c0 2 1 3 2 3l1
4c0 4 0 5 2 5h1v7h3v8l1 7h1l1 2 1 2 3 2h8l2 1 9-2 5-1 5-1 2-1 4-2
3-2c8-2 13-8 13-18 0-8-2-15-4-18l-3-4-7-8-3-2-4-2c-2-2-4-3-4-6l-1-3-1-2-1-4-2-5c0-3 0-4-1-3v-1l1-1v-1c0-2 6-9 11-12 4-3 12-11 13-15l1-2-1-1c-2-1-2-1-8 5a247 247 0 0 1-18 15c-8 5-9 6-13 5h-2l-1 1 1 2 2 2a66 66 0 0 1 11 21c2 7 3 8 6 9 8 1 14 7 19 17 5 9 5 20 0 22-2 0-3 0-3-3 0-5-1-9-3-9s-2 1-2 3c2
5-1 16-4 16l-2 1-1 1v-1l-1-6c0-7-1-9-3-7l-2 5c0 8-5 13-11 11-8-3-10-9-3-10l2-1c1-1 0-1-1-2l-8-7-3-9-1-6a307 307 0 0 1-18-24c-9-14-11-25-6-35l1-3 1-2 2-3 1-2 2-3a70 70 0 0 1 6-8l6-8c8-9 20-22 25-25l3-2a946 946 0 0 0 15-8c3-2 11-4 18-5l3-2h5l2 2 2 1 1 1 3 2 3 2 4 1a89 89 0 0 0 39 8l6 1h1l-1 3c-1 5-6 13-12 22-5 7-12 13-21 19a67 67 0 0 1-11 7l-11 6-13 4h-11c-3-2-5 1-2 4 2 2 11 3 16 1l5-1 4-2 3-1a136 136 0 0 0 38-25 74 74 0 0 0 13-16l8-16c1-7 3-10 7-12l5-4c8-6 10-7 13-4l2 2c4 2 9 9 11 16l1 2 4 14a351 351 0 0 0 16 44 209 209 0 0 1 12 16l4
5a105 105 0 0 0 22 20c11 9 14 16 13 33-1 7-1 8-3 10-3 2-4 1-5-5v-6l-2-4-2-4-1-2a63 63 0 0 0-10-9c-3-3-4 2-1 13 1 7 1 8-2 11s-9-1-9-7c-1-3-2-5-5-7-2-1-5-4-7-8l-1-5c-1-4-2-7-5-8l-4-3-4-3-17-17c-3-4-3-4-5 0-1 3-1 5 1 9l1 4 1 2c0-2 3 0 3 1l2 2 1 1 2 2 1 1 2 2 2 1c0 1 1 2 3 2h3v2l1 1h2v3l1 3h1l1 4c0 5 0 5 2 5l1 2c0 1 0 2 2 2l1 1c0 1 1 2 4 2h2v7c0 2 0 2 2 3l1 1 2 1 1 1c0 2 1 3 4 3h3v1l3 2 3 1c0 2 1 2 9 2l8 1c0 2 3 2 4 0l2-1c4 0 5 0 5-2l1-1c2-1 2-1 2-4l1-3c2-1 2-1 2-16 0-14 0-14-2-14h-1v-4c0-4 0-5-2-5l-1-2c0-2-1-2-2-2l-1-1c0-2-1-2-2-2l-1-2-2-1-1-1c0-2-1-2-2-2l-2-1c0-2-1-2-3-2l-3-2-1-2-2-1c0-2 0-2-2-2l-1-1c0-2 0-2-2-2l-1-2-2-1-1-1c0-3-1-4-2-5l-2-2-1-1-1-2-2-2-2-1v-2l-1-1-1-1-1-2-2-2-1-1-1-2c-2 0-2 0-2-2l-1-1c-1 0-2-2-2-5 0-4-1-6-2-7l-1-5-1-5c-2 0-2-2-2-7s0-5-2-5h-2v-6l-1-7-2-4c0-4 0-4-2-5l-1-3c0-2-1-3-2-3l-1-2c0-1 0-2-2-2l-1-1c0-2
0-2-2-2l-1-2-2-1h-1v-6h1l2-2 1-3 1-1 1-1v-6h1c2 0 2-1 2-6l1-4c1-1 2-1 2-3v-30l-2-1-1-1v-30l-1-1c-2-2-2-2-3-9-2-9-2-9-4-10l-2 1m37 5-1 1s-1 0 0 0c0 1 0 0 0 0h2v-1h-1m-51 10c-2 0-8 3-8 5-1 3 0 3 4 2l7-1c7-1 8-1 5-4l-3-2h-5m32 2h-1l-1 2c1 0 1 0 0 0l1-1 2-2-1 1m-85 1-2 1-3 1c-4 2-8 7-6 9 1 2 3 2 6 0 4-3 9-4 14-3h7c3-4-9-10-16-8m-91 5v1-2 1m0 5v2l2 3 1-1-1-1c-1 0-1 0 0 0v-1l-2-1v-1m145 7c-4 1-6 5-6 10s0 6 2 8c6 4 12-5 10-14l-5-5-1 1m-15 2-2 8c1 7 2 9 7 16 8 10 1 18-13 16h-5c0 2 0 2 3 4l2 1h11l3-1c10-5 12-13 6-22a88 88 0 0 1-4-5c-3-3-5-8-6-14 0-2-1-3-2-3m-36 2c-5 3-5 16 0 18 5 3 10-2 10-10 0-6-5-10-10-8m-73 17c-1 1-1 1 1 1 3 1 3 2 3 6 0 5 2 7 4 5l1-2 2 1c2 0 4 0 3-2a40 40 0 0 0-9-9h-5m70 33c-2 1 1 5 6 7l4 1c5 3 23 3 30 1 4 0 7-3 8-5l1-2-1-1-4 1c-7 4-27 4-35 0-6-3-8-4-9-2m63 148v3c0 1 1 1 1-1v-3l-1 1m1 3s0 1 0 0v-1 1m1 8 2 2v1-2h-1v-1h-1m3 12 1 1 1 1h1-1l-1-1v-1h-1m62 6c2 0 3 11 1 14-3 3-6 1-5-5l1-6c0-5 0-5 1-4l2 1m-56 19s0 1 0 0v-1 1m-164 7-1 2v2c0 1 0 0 0 0l2-2 1-1h-1l-2 1 2-2v-1l-1 1m-1 8v1-2 1m0 14v1h1v1l1-1-1-1h-1m163 3-1 1 2-1v-1l-1 1m-4 3v1l-1 1h1l1-1 1-1h-2v-1 1m-18 4c-2 0-2 1-2 8a165 165 0 0 1-2 28c0 5-1 6-4 9-4 2-6 4-7 6-1 3-2 4-4 4-1 1-9-2-11-5l-2-2v-3c1-4 0-7-1-10l-1-11c-1-7-1-7-3-8s-3 0-3 2c0 8 0 11 2 14v11l-2 12c0 3-1 3-3 8l-2 6c0 2 4 7 6 9l2 1 4 2 3 1 4 2 4 2 4 1 4 1 5 2 5 2 4 1 5 2c4 2 18 2 23 0l3-2 3-2 2-1 6-6c3-4 3-18 0-20l-1-2-2-2-2-2-2-2-2-1-3-2-4-2-2-1-3-2-4-1-1-1-3-2-3-2-4-2-2-2-1-1c-2-1-1-5 1-7l1-2 1-1v-5c2 0 2-1 2-11l1-10h-2l-3-1h-4m-115 4h-4l-1 7v6l-1 1-2 6c0 5 0 6 2 6 4 0 5 24 2 30l-4 14-2 5c-3 5-3 11 0
16a51 51 0 0 0 21 18l4 2 5 2c4 2 20 1 24 0l4-2 4-1 2-2c7-3 10-12 7-17l-2-4-1-4-2-2-3-4-6-9-9-10c-2-2-2-12 1-20l1-6 2-5c2-3 2-14 1-15-3-2-5 1-5 7l-1 6-2 7a261 261 0 0 1-4 17c0 5-1 5-8 6l-5 2-4 1-8 6h-5v-8l2-18c0-18 1-25 2-30s1-5-2-7l-3-1m124 23v1l1 1 1 1v-3h-2m-140 3h-1v1l2-1h-1m152 0h1l1 1 1 1v-1l-1-1h-2m-161 3h-1v1l-1 1h1l1-2h1-1m172 0 1 2v1-3h-1m8 4 2 2-3-3 1 1m1 0h1l-1-1v1m5 3 1 1h1l-1-1v-1h-1v1m-205 3-1 1h1l1-1-1-1v1m215 2 1 1 1 1v-1c0-1 0-1 0 0l-1-1h-1m-29 11 4 2 3 1 1 1 2 2c2 2 2 5 0 6l-1 1-1-1-6-3v3l4 3c2 4-1 6-4 3-2-2-5-3-7-3-2 1-2 2 0 3 3 1 6 5 6 6-3 4-24 2-27-3-3-3 3-15 10-19 3-2 3-2 8-2h8m-58 1 4 2 3 2 3 1c2 1 3 1 3 5 0 5-3 6-9 3-8-4-11-9-9-14 1-1 3 0 5 1m-144 1-1 1h1v-1m-4 13s0 1 0 0v-1 1m-2 3-1 4v3-2l2-5h1-2m256 0 1 3 1 1c0-2-1-4-3-4h1m-255 2c-2 1-1 8 0 8v-8m254-1 1 1v4l-1 3v1l1-1 2-3-2-4-1-1m-147 5c6 2 13 10 13 15l-3 5c-4 1-4 1-5-2-4-7-8-7-6 1 1 3 0 5-4 6-3 1-5-1-6-6l-5-5v6c3 4-1 7-5 5l-3-2c-5-1-11-6-11-8s8-11 11-11l2-1c4-4 16-5 22-3m149 1h-1l1-1v1m-258 2 2 2-1-2h-1m1 6v1l-1 1v-1 1h1l1-1v-1h-1m257 5 1 1v-1h-1m1 9-1 2-1 2v1l1-1-1 3c-1 0-1 0 0 0s2-1 2-3v-4m-259 6 1 1h1c1 0 1 0 0 0l-1-1h-1m255 10v1l1-1h-1M80 558l2 2h-1l-1-1h1l2 1v1-1l-1-1v-1h-2m6 4 2 2-1-1-1-1m198 3-1 1 2-2-1 1m-191 1 1 1v-1h-1m6 2 4 2-1-1-2-1h-1m178 0c-1 1 0 1 0 0l1-1-1 1m2 0-2 1v1l2-2c0-1 0-1 0 0m-180 0 1 2c1 0 1 0 0 0l-1-1v-1m9 4 1 1v-1h-1m10 3v1-1h1v1-1h-1m142 0v1-1h1-1m-130 3 1 1s1 0 0 0h1c1 0 1 0 0 0l-1-1-1-2v2m118-1v1l-1 1c1 1 3-1 4-2h-3m-15 4-2 1c-1 0-1 0 0 0h2v-1l1-1-1 1m-87 0 1 1-1-2v1m88 0v1l1-1h-1m-66 2 2 2h2-1l-2-1-1-1m2 1 4 1-2-1c-2-1-3-2-2 0m38-1-2 2h-2 1l4-2h-1m2 0-1 1v1l1-2m-9 2-3 1h-2 3c4 0 6-1 3-1h-1m-24 1h8a45 45 0 0 0-8 0"/><path fill="#a1d3e4" d="m220 31 2 2-1-2h-1m13 6 2 1-2-2v1m-54 1-6 1-6 1-6 2-4 2-4 1-3 1-4 2-3 2c-13 7-29 24-31 34l-1 5c-3 7-3 29 0 31l5-2a96 96 0 0 1 13-9 3943 3943 0 0 1 77-37l7-1c4-2 20-3 26-2 6 0 7-1 6-4-2-6-9-14-16-18l-3-2-4-2-3-1-6-2-7-1c-3-1-22-2-27-1m92 31 2 1-3-2 1 1m-47 6a113 113 0 0 0-21 4l-6 2-4 2-5 1-4 2-3 1-3 2-4 1-4 2-3 2-4 2-2 1-8 5c0 2 1 3 2 3a118 118 0 0 0 63-8l6-2 5-1 6-2 5-1 6-1c17-5 38-1 31 6l-3-1h-11l1 7c0 2 5 1 8 0l4-2c4-1 8-4 9-7 0-4-4-9-15-13a102 102 0 0 0-46-5m-121 3-1 1c0 1 0 1 0 0l1-1 1-1-1 1m-3 9-1 3 1-1c2-2 2-3 0-2m149 8-6 1-8 2-6 2-5 1-4 2-5 1-5 2-5 1-4 2-7 2 3 1c4 2 8 4 9 6l1 2c0-1-1-4-3-5l-4-3-2-1 2-1h3l4-2 5-1 5-2 4-1 6-2 6-2 6-1 13-2c2 0 3 1 3 3 0 1 0 1 0 0 1-3-2-6-6-5m7 24v9a729 729 0 0 0 0-9m-13-10h1-1s-1 0 0 0m4 1c2 0 6 3 6 4l-3 2c1 1 4 0 4-2s-5-5-7-5-2 0 0 1m-8 1-3 1 3-1 2-1c1 0 1 0 0 0l-2 1m37 0-1 1v1l1-2m-116 2-1 6v5-5c0-6-1-6 12-6 13 1 14 1 12 2l-2 1-2 3-1 2v-1c1-1 5-5 7-5v-2l-11-1h-11l-3 1m75 0c-2 1-1 6 1 6v-1c-2 0-2-3-1-5 1-1 1-1 0 0m8 3h1-1c-1 0-1 0 0 0m4 0h2-2m-9 2h-1 2l1-1-2 1m-32 4-3 1-2-1 2 1c2 0 5-1 4-2l-1 1m-7 0h1-2 1m-21 1c0 2 1 3 4 3l7-4-2 1c-5 4-8 4-9 0 0-1 0-1 0 0m-20 3v2l1-3-1 1m87 3 3 2 1 1-4-4v1m-5 2-2 2 2-2 3-2h1-1l-3 2m-12 1-2 6 1 3v-3c0-5 2-7 4-6v1-1h-3m-34 1v1l2-1c1 0 1 0 0 0h-2m5 1 4 4v1c0-2-3-6-5-6l1 1m-43 1-1 3-2 3v1l1-1 2-6c0-1 0-1 0 0m95 3v2-3 1m-19-1v1-2 1m5 5-1 4h-1v-1c0 1 1 3 2 2v-10 5m-48-2v8-8c1-2 1-3 0 0m67 0v1-2 1m-24-1 1 3 2 2-1-2-2-3m-112 1h1c3-1 7 0 9 3l3 2 8 9c2 2 5 2 6 0l-1 1c-1 1-3 1-8-5l-5-5-8-5h-5m83 3v1-3 2m24-1v1-2 1m-113 1-1 3c0 1 0 1 0 0l2-2 1-3-2 2m38 2-1 2 2-4-1 2m104-2 2 5 1 4-1-4a110 110 0 0 1-2-5m-8 4-3 2v1l5-5-2 2m-45 0-4 6h-1c2 0 5-5 5-6m25 1 2 3v-1l-2-2c0-1 0-1 0 0m9 0 1 1 1 2v1l3 3 1 2-2-4c-2-2-2-3 1-3h2-2l-2-2h-3m-88 1-1 3v1-1l2-4-1 1m91 0h-1v-1l1 1m-128 3v1-3 2m7-2c-3 0-3 2 0 3h2l-2-1c-2 0-2-1 0-1 4-2 10 1 16 9 1 1 0 2-1 2v1l2-2-8-9c-4-2-6-3-9-2m72 1 2 2c1 0 1 0 0 0l-1-2c-1-1-2-2-1 0m40 2 6 7-5-7h-1m-109 1c1 1 2 2 1 5 0 5 2 7 5 5l3-2 1 1-1-1-3 1c-2 3-5 1-4-4 0-4-1-6-3-6l1 1m73-1h2-2m64 1v1-1c0-1 0 0 0 0m-147 5v1-2 1m132 0 1 7v1c1 2 1-6-1-8v-1 1m15 5v2-3 1m-146 0 2 3-1-2-1-1m122 4-3 2-1 1 6-5-2 2m-119 0 7 7-1-1-6-6-1-1 1 1m128 1-3 3c-3 3-3 4 0 1 2-2 4-4 3-5v1m-28 2-1 3c1 2 5 4 6 4s1 0 0 0l-5-4c-1-1 1-3 2-3s1 0 0 0h-2m8 1h3-3m11 5-2 1 2-1 2-1-2 1m22 1v2-2m-126 1h7c2-1 4 0 5 2v-1c-1-1-3-2-6-1h-6c-1-1-1 0 0 0m61 3 3 2-1-1-2-1m-4 0 1 4 4 4c1 0 0 0 0 0-5-4-6-7-3-8h2-4m-44 1 3 5-1-3-2-2m93 1c3 1 3 3 0 6l-1 1 1-1c3-2 3-5 0-6h-1 1m-38 2 3 1-4-2 1 1m56-1-1 2v1c0 1 2-2 1-3m-47 3h1-1s-1 0 0 0m-61 0c0 3 14 18 21 22a106 106 0 0 1 2 0 65 65 0 0 1-23-22m66 1h10l3-1h-16l3 1m-15 3 2 1-5-2 3 1m54 0-1 2c-1 1-1 1 0 0l2-3-1 1m-18 0-1 2 3-3-2 1m-26 3h1l-1-1v1m4 0h13-13m-58 17-3 1-2 1 2-1 3-1c2-1 4-1 8 3l2 1-3-3-2-1h-5m22 2 3 1-2-1-3-2 2 2m-31 0-2 1a18 18 0 0 0 5-1h-3m36 2 3 1h1l-5-2 1 1m45 1-2 1 3-1 2-1-3 1m-61-1 4 3-1-1-3-2m85 1 1 7 2 9 1 8 2 13 1 12c2 6 1 25 0 30-2 10-2 11-1 14l2 2 1 1c3 5 17 17 22 21h2-1l-3-2-4-3-1-1-14-15c-4-5-5-6-2-15a143 143 0 0 0-1-50l-2-12-1-6-2-8c-2-4-1-6 1-4l1 1-3-3-1 1m-9 0-8 5-5 6a81 81 0 0 1-21 37 62 62 0 0 1-12 11l-1 1-2 1-4 2-1 2-3 1-3 2-3 2-3 1-3 2-3 1-4 2-3 1-5 2-11 1c-7 0-8 0-12-4l-2-1-1 1c-5 6 1 19 10 23l3 1 4 2 3 2 5 1 6 2 10 1 11 2a146 146 0 0 0 42-4l4-1c11-4 19-13 22-26l2-6v-10l-1-15a317 317 0 0 1-5-30 130 130 0 0 0-4-17c0-2-1-2-2-1m-107 1-2 1 4-2-2 1m-4 1-5 3 2-1a46 46 0 0 1 4-2h-1m88 1-2 1 4-1 2-1-4 1m-24 0 3 1-1-1h-2m-22 0 5 2h-1l-2-1-2-1m27 1h1c1 0 0 0 0 0h-1m58 0 1 2 2 3 2 4-5-9c-1 0-1 0 0 0m-134 2-3 2-3 2-2 2 2-1 2-2 2-1 3-3-1 1m57 1 4 1c1 0 1 0 0 0l-3-1-2-1 1 1m11 3 4 1h2-2l-4-1-2-1 2 1m7 1h2-2m-85 2-2 2 4-4-2 2m90-1h2-2m10 0h2-2m5 0 1 2v1l-1-3c-1-1-1-1 0 0m-109 5-1 1 2-3-1 2m153-2 2 4a553 553 0 0 1-2-4m-45 4c-2 3-2 3 0 0l1-2-1 2m-112 1-4 4 2-1 2-3 2-1-2 1m-6 7h-1l2-1-1 1m167 0 2 5-1-3-1-2m-29 4v10a1630 1630 0 0 0-8 23 114 114 0 0 1-7 13c-2 4-13 15-15 15l-2 1c-2 1-2-2 0-4a93 93 0 0 0 23-39l2-5 1-4 2-5 2-4c1-2 1-2 2-1m-29 3-3 3-1 2-1 1a81 81 0 0 1-13 13 82 82 0 0 0 18-19m61 4 2 5-1-1-1-3v-2 1m-126 9-4 3a241 241 0 0 1-3 3c5-5 6-5 8-5s2 1 1 3l-1 1h1l1-3c0-2-1-3-3-2m129 5 1 2 1 1-1-2-1-1m-194 1-1 2-1 1h1l2-4-1 1m66 1-6 7-3 5c0 4 5 7 11 7h3-3l-8-3c-2-3-2-7 1-9 2-2 6-7 5-8v1m38 4-2 2c-1 0-1 0 0 0l3-2 1-1-2 1m-108 2-1 1 3-3-2 2m52 2-2 1 1-1 1-1v1m49 0-1 1 3-2-2 1m100 0 1 2a241 241 0 0 1-1-2m-204 4-1 3 1-2 1-3-1 2m98-1-3 2h-1c1 1 3-1 4-2h1-1m-7 3-2 2h-1 2l2-2h-1m-9 4h1v-1l-1 1m-84 1v1-2 1m34 0c-2 1-2 2-1 3 1 2 2 2 0 0 0-1 0-2 2-3h-1m181 3 1 1 2 3a100 100 0 0 0-3-4m-180 3v1l5 6 1 1-1-2a22579 22579 0 0 0-5-6m-35 1v1-2 1m1 4 1 2v-1l-1-1m40 4v1l2 2v1l-2-4m185 2a190 190 0 0 1 8 10l2 2 1 1-1-1a94 94 0 0 1-10-12m-223 0 1 2 2 3 2 3a98 98 0 0 1 6 9c2 4 2 4 2 2l-2-2a78 78 0 0 1-6-9l-2-3-3-5m41 4 2 4-1-3-1-1m195 12a74 74 0 0 0 11 8v1-1l-3-2-5-4c-5-4-5-5-3-2m-192-1 3 3c1 1 1 1 0 0l-2-2-1-1m20 0v2l9 9c1 3 3 5 5 5a332 332 0 0 1 10 2l11 2a162 162 0 0 0 59-4l4-2 2-1 7-7c2-3 0-7-2-5a82 82 0 0 1-14 6l-9 3-7 1a157 157 0 0 1-65-8l-5-2-5-1m-13 5 2 1-1-1-2-1 1 1m131 1 1 1v-2l-1 1m-167 1c1 3 2 3 1 1l-2-2 1 1m42 0 2 1 1 1c1 1 1 1 0 0l-4-3 1 1m5 4 1 2c2 1 3 4 5 7l1 1-2-3-2-3a22 22 0 0 0-3-4m-44 0-2-1 2 1m164 0v1c0 1 0 1 0 0v-1m31 3 2 3c0 1 0 1 0 0l-2-2-1-2 1 1m-46 4-10 5v12a276 276 0 0 1-5 54c0 1 2 3 4 3 12 0 24-5 26-11l1-2-1-11a127 127 0 0 0-4-25 70 70 0 0 0-3-14 31 31 0 0 0-3-9l-1-2-1-1-3 1m48 2s0 1 0 0v-1 1m44 1a24 24 0 0 0 3 5l-3-5m-190 1v1l2 3v1-1l-2-4m169 0-1 2c0 1 0 1 0 0 1-2 2-2 3-1h1l-3-1m-159 2v5c1 6 0 12-1 15-3 5-8 8-12 9l-4 2c0 2-7 4-10 5l-6 1-3 1c-4 0-6 4-6 14 0 7 2 10 11 15a1580 1580 0 0 1 16 7 103 103 0 0 0 18 6l21 4a111 111 0 0 0 28-2c5-1 10-3 12-6l4-17 2-10 2-42c0-7 0-7-10-5l-6 1h-8c-11 1-10 0-12 7l-1 5-1 4-2 5-2 3-1 4-2 2-2 4c-1 0-2 1-2 3l-1 1 1-5 1-3 1-5 2-6 2-5 1-6 1-5-2-3a246 246 0 0 1-27-3h-2m-54 2v1-3 2m219-1a45 45 0 0 1 8 10l1 1-1-1-5-7-4-4 1 1m-219 5 3 4-1-1-1-3h-1m35 0 1 5s0 1 0 0v-4c0-2 3-1 4 1h1c0-2-5-4-6-2m12 1s0 1 0 0v-1 1m190 1s0 1 0 0v-1 1m-40 1 3 2c2 1 3 3 3 5v1c1-3-1-6-4-7l-2-2v1m-193 2 2 2 6 5-4-3a59 59 0 0 1-4-4m234 4v2-4 2m-202 0-1 6-1 2 1-2 2-9-1 3m-11-2c-2 1-3 2-3 6v2a1529 1529 0 0 0 3-7l1-1 1 1h1l-2-2-1 1m17 3v2l4-1c0-1 0-1 0 0h-2c-2 0-2 0-2-3v2m171-2v2c2 8-5 11-9 4l2 2c4 4 8 2 8-4l-1-4m16 1 1 2 1 3v2-2l-1-4-1-1m-9 3v6-1l1-3c0-2 1-4 2-3l1-1h-2l-1-1-1 3m-191 3c0 5 0 6 2 5l1-1c-3 1-3 1-3-3v-4 3m-18-1-2 1c-2 0-3 0-4 3l6 5-1-1c-5-2-6-8-1-6 2 0 4-2 3-3l-1 1m214 2c0 1 0 1 0 0v-1 1m12 1v1-2 1m-215 0c0 2-2 4-4 5l-1 1c2 0 5-4 5-6m142 4v1h1l1 1v-2h-2m72 0c0 2-5 3-5 1l2 2 4-3h-1m-17 2h4-1l-2-1-1 1m-207 0h4-4m-9 12-1 3 1-2c1-1 2-1 0-1m124 32-3 3-7 9-8 4v5-2l3-4 3-1 3-1c2-1 6-5 7-9 1-2 2-2 8-2 7 0 7-1 7 8v6-7c0-9 0-9-7-9h-6m-92 8-3 10v1c2-10 2-11 7-10l5 2 5 2 5 1 6 2c5 1 5 0 5 2v2-2c0-2 0-3-4-3l-4-1-6-2-5-2-4-1-5-2c-1-1-1-1-2 1m61 8-11 1c-11-1-12 0-12 2v6c2 1 14 2 21 1 8 0 9-1 9-5s-3-6-7-5m5 3 1 3c-1 2-2 3-14 3-14 0-16-1-15-4 0-2 2-3 9-3h11l8 1m39 2v1-2 1m-108 0v1-2 1m33 2s0 1 0 0v-1 1m44 1v1-2 1m30 1-1 3v5c0 1 0 1 0 0a542 542 0 0 1 1-8m-107 3v2-4 2m31 2c0 2 0 2 1 1v-2l-1 1m9 2c-2 1-3 2-4 6l-1 6c-2 6-3 16-1 18l5 4c3 3 4 4 6 9l4 6a35 35 0 0 1 8 12c3 8 1 16-6 19l-2 2a47 47 0 0 1-53-7c-12-9-16-19-11-29l2-5 2-8c4-9 4-9 4-16 0-8 0-9-3-9l-8 2-3 1-5 1-4 2-3 1-4 2-3 2-2 1-6 5a43 43 0 0 0-8 9l-2 3-1 4v10l1 4c1 3 6 8 10 12l6 5 2 1 2 1 3 2 3 2 4 1 4 2 4 1 4 2 5 1 5 2 5 2 7 1 8 2 9 1 18 2a196 196 0 0 0 42-1l16-2 7-2 8-1 7-2 6-2 5-1 5-2 4-1 4-2 3-1 4-2 3-2 2-1 2-1 7-5a45 45 0 0 0 7-8l2-4 1-4v-10l-1-4-2-4-2-2a62 62 0 0 0-7-7l-3-2-3-2-2-1-4-2-3-2-3-1-4-1-5-2-6-2c-6-2-12 0-7 2l3 2 2 1 4 2 3 2 3 1 3 2c6 3 11 8 13 13v15c-1 4-8 10-13 13-7 3-19 4-26 2a209 209 0 0 0-24-9 43 43 0 0 1-7-3l-5-2-3-1-9-6c-3-4-3-8-1-12 2-3 3-5 3-8l2-13c2-2 1-8-1-10l-10-1-10 1h-11m38 0 1 2 1 3v1l-2-6m-6 5c1 2-1 7-3 14v4c0 3-1 6-3 8-4 6 1 15 11 19l2 1 4 2 4 1 4 2 4 1 5 2 5 2 4 1 5 1c5 3 13 3 21 2a33 33 0 0 0 19-12c3-4 4-15 2-20a33 33 0 0 0-17-14l-3-2-3-1-3-2c-2-1-2-1-1-2s8 0 11 1l4 2 4 2 3 1 3 2 3 1 10 8c7 8 9 14 7 24a33 33 0 0 1-13 16l-3 1-3 2-2 2-3 1-3 2-3 1-6 2-4 2-4 1-6 2-7 1-7 2-8 1-9 2a293 293 0 0 1-96-5l-5-1-5-2-5-2-5-1-3-2-4-1-4-2-2-2-2-1-3-2-3-2-1-1a51 51 0 0 1-10-11c-4-4-3-16 0-22a51 51 0 0 1 20-16l4-2 3-1 4-2 5-1 6-2h5v14l-4 11-1 5-2 5c-3 6-3 16 0 20l1 1a62 62 0 0 0 26 19c6 3 26 3 30 0l4-1 3-2 3-2c3-1 6-4 7-6a25 25 0 0 0-3-16l-7-11-3-4c-2-4-8-12-11-13-2-1-2-9 0-16l2-6c1-5 1-5 3-6l6-1h22c2 0 4 1 4 4m-73 2v2-4 2m107-1v1-3 2m46 0 1 1v-2l-1-1v2m7 3 1 1c1 0 1 0 0 0l-1-1-1-2 1 2m-54 1-2 1-8 8-2 3-2 1c1 0 4-2 4-4l6-6c4-2 5-3 4-4v1m22 0h-1c-1 0-1 0 0 0h1m-99 3-1 3h1v-3l1-2-1 2m52-1v1-2 1m0 3 1 3 4 3-1-2c-3-1-4-2-4-4v-1 1m-81 5v1-3 2m88 1 4 2-4-2m-61 2-1 2v1l1-3m-27 2-1 4c-2 4-2 5 0 1l1-7v2m76 0v1c0 1 0 0 0 0h5l2 1-2-1-5-1m66 1 5 3 1 2 1 1c0 1 0 1 0 0 1-1-7-7-10-7l3 1m-17 0-1 1 2-2-1 1m-111 2-1 1 2-1 1-1-2 1m72 1 2 1-1-1c-2-1-3-2-1 0m33 1-3 4a492 492 0 0 1 3-4m-43-1 6 7-2-2-3-3-1-2m-67 2-3 1-1 1 1-1a55 55 0 0 1 5-2l-2 1m83 0 1 4v3-3c0-3 0-4-2-4h1m47 1c-1 1 1 5 3 6h1l1 2 1 1-1 1-3-1c-1-2-8-4-9-2s-1 3 2 4l5 5a49 49 0 0 1-2 1l1-1h1l-1-2-4-3c-2-1-2-2-2-4 1-2 7 0 9 2 1 2 5 2 5 0l-5-5c-2-1-2-3 0-3 1-1 5 1 6 2 2 2 3 1 3-1l-1 1h-2c0-1-7-4-8-3m-141 2 2 2v-1l-2-1v-1 1m5 1-1 1 1-1 1-2-1 2m83 3 3 1-2-1-2-1 1 1m5 1h-1 3v-1l-2 1m-160 4v4c0 2 0 2 0 0l1-4v-1l-1 1m255 0h1l1 2v1-1l-1-3-1 1m-74 1 1 1 1 1-1-1v-1l-1-1v1m2 2 4 2-3-2h-1m-87 2-2 1 2-1h10l2 1-2-1h-10m-10 3-2 2 3-2 2-2-3 2m25-1 6 6 2 1-8-8v1m85 0h2-2m5 0h2-2m-120 4-1 1 2-1 1-1-2 1m-3 3-3 4-1 2 1 2 3 3 4 2-5-3-2-2c-1-2 0-5 2-7l3-3-2 2m178 1 1 2 1 1-2-3c-1 0-1 0 0 0m-137 1 1 2 1 2-1 1-2 3 3-4-2-4m-14 1v2l1 1-1-2c-1-1 0-1 2-1 1 0 2 0 3 2l2 2c-2-3-6-6-7-4m-14 2v2c0 2 0 2 0 0-1-3 3-3 6 2 0 0 0 1 0 0 0-2-4-5-6-4m-80 5v11l2 4a40 40 0 0 0 14 16 75 75 0 0 0 21 11l4 1 4 2 5 1 6 2 6 1 6 2 8 1 20 3 29 1a1126 1126 0 0 0 52-7l5-1 6-2 5-1 5-2 3-1a104 104 0 0 0 17-10l11-9c4-6 8-18 6-22v-1l-2 1-5 3a33 33 0 0 1-10 7 90 90 0 0 1-12 6l-12 5a173 173 0 0 1-38 9l-8 1-13 1a269 269 0 0 1-98-12l-3-2a68 68 0 0 1-14-6l-4-2-3-2c-2-1-4-2-7-6l-6-4v1m80-1 1 2c1 3-2 5-4 4l-3-1 2 1c4 2 7 0 5-4l-1-2m16 2v1-2 1m-9 0c0 3 3 5 5 5l4-3h-1c-2 3-7 2-8-1v-1m16 0h2l2-1-2 1-2-1v1m-96 8h-4l2-1 2 1m238 1-1 1 2-2-1 1m-239 0-1 1h-2l2-1h1m10 6h-1l-2-1c1-1 3 0 3 1m204 0h-1l1-1v1m-211 0h-3 3m206 3h-3l2-1c3 0 3 0 1 1m-203 1-2 1v-1h2m202 0h-2 2c1 0 1 0 0 0m-186 2v-1 1m180 0h-2l1-1 1 1m-194 1 1 1h-1c-2 0-2 0-1-1h1m12 0v1l1 1 1 1h-5l1-2 2-1m196 1h-1 1m-184 1-3 1c-3 0-3 0-2-1l3-1 2 1m164 0c1 1 1 1-2 1l-3-1 2-1 3 1m-176 3c-2 0-2-1-1-1h1v1m21 0c1 0 1 0 0 0l-11 1H93l-1 1h1c2 0 1 0 0 0h-1l-1-1c-1-1 0-1 11-1h11l2-1 2 1m145 0h24v1c0 2-1 2-2 1l-14-1h-14l1-1s1 0 0 0l3-1 2 1m-135 3h-1v-1l1 1m123 0h-5 5m-150 2-2 1h-2l1-1h3m180 0-1 1v-1l1-1v1m-170 1 3 1c2 0 3 1 3 3l-1 2h-2l-2-1c-1-2-2-2-6-2h-3l3-3h1c1-2 3-1 4 0m8-1v1h-2l2-1m25 1-2 1-3 1h-3c-1 1-1 0-1-1v-1h9m94 0c-2 2-10 2-11 0h11m37 1c0 2 0 2-2 2-3 0-3-1 0-2h2m-103 2h-13 13m30 1h4c1-1 0-1-1-1h-3 16l-2 1c-3 1-23 1-22-1 1-1 6 0 8 1m66 1-2 1c-2 0-3 0-2-1h4m-187 2 2 1h1l-2-1h-1m47 1 1 1h-8c-1-1 5-2 7-1m131 0-6 1c-2 0-2 0-1-1h7m-120 2 2 1c1 0 2 0 1 1h-4c0-1-1-2-3-2h-1l1 1c3 0 3 1 0 1-4 0-4 0-3-2h7m108 0h-1l-4 1-1 1c-1-1 3-3 6-2m-50 0h-2 2m50 2h-4 4m-50 0-1 1v-1h1m88 1v1l1-1h-1m-131 1c0 2-9 1-9 0h9m43 0h-2 2m35 0-4 1c-5 0-6 0-4-1h8m-132 2 2 2h1l-1-1-2-1v-1 1m178 1-1 1 1-1 2-1-2 1m-77 0h4l4 1h-39l2-1 2-1h13l14 1m-54 11 2 2h-1l-1-1v-1m63 3-4 2h-1c1 1 6 0 6-2h-1"/><path fill="#6997af" d="M180 27c-6 0-7 0-8 2l-6 1c-5 0-7 0-7 2l-3 1-5 1h-1v1h-1l-5 1h-1c0 2-1 3-3 3l-3 1-1 1c0-1 0 0 0 0l-1 1-2 2-2 1-4 3-1 1-2 2-2 1-2 2-1 1-2 1-1 2-2 2-2 2h-1v3l-2 2h-1l-1 4-2 5-2 2c1-1 0 0 0 0v2l-1 5-1 4c-2 1-2 2-2 18l1 18 1 1c-1 0-1 0 0 0l1 7v1l1 1v-2h2l2-2 3-1 2-1 4-2 2-1 2-1 3-3 2-1 2-1 3-2 3-2 2-1 3-2 3-1c2-2 7-2 8-1h2c2-1 4 0 6 1l1 2v4a60 60 0 0 1-5 23 70 70 0 0 1-6 12c-2 3-4 2-6-1-12-14-21-17-28-8-1 2-2 13-1 18 3 10 18 21 25 18h4l3 4a63 63 0 0 0 35 32l4 1a92 92 0 0 0 16 4l-4-1-5-1a38 38 0 0 1-10-3l-17-10c-8-6-14-13-19-23-2-4-3-5-6-4-4 1-10 0-13-3l-2-1-8-8c-5-8-4-23 2-26 3-2 6-2 8-1l8 5 5 5c5 5 7 6 8 5a77 77 0 0 0 13-37l1-5 1-1h17c6 0 10 2 7 3-2 0-6 4-7 6-1 4 2 6 7 3s9-3 17-2h4c2-4-2-8-9-10l-3-1 7-2 4-2 5-1 5-2 5-1 4-2 5-1 6-2 6-1 8-2c7-1 7-1 7 25 0 23 0 23 2 28a69 69 0 0 1-3 39l-2 3-2 4-1 2a83 83 0 0 1-23 21l-11 4a82 82 0 0 1-10 1 43 43 0 0 0 34-14 69 69 0 0 0 14-19c4-9 6-15 6-28v-9l-2-5c-1-6-2-8-2-31s0-22 3-22c2 1 2 1 4 10 1 9 2 10 7 10h3l1-1 1-1 3-1 5-1 3-2c2 0 3-1 3-3l1-1 2-1 1-2 2-2a63 63 0 0 0 0-13l-1-3v1h-1l-1-1v-1l-2-2-1-2-1-1-3-1-4-2-2-1-1-2c-1 0-1 0 0 0l-4-1-4-1v-1h-1l-4-1c-6 0-6 0-8-3l-1-2c-1 0-2-2-1-3l-1-1v-1l-1-1-1-1-1-1-1-2-2-2v-1c-2 0-3-1-3-2s0-2-2-2l-1-1-2-2-1-1-2-2c-2 0-4-2-4-3l-4-1-6-2-3-1c0-2-1-2-6-2l-5-1c-1-2-15-3-29-2m26 12a165 165 0 0 0 13 3l3 1 4 2 3 2c7 4 14 12 16 18 1 3 0 4-6 4a122 122 0 0 0-53 9l-4 2-3 1a118 118 0 0 0-20 10l-3 1-2 2-7 4-11 8a3943 3943 0 0 0-25 14c-3-2-3-24 0-31l1-5c2-10 18-27 31-34l3-2 4-2 3-1 4-1 4-2 6-2 6-1 20-1 13 1m-95 27-1 1v-1h1m137 9c7 1 18 3 22 5 11 4 15 9 15 13-1 3-5 6-9 7l-4 2c-3 1-8 2-8 0l-1-7h11c3 2 4 1 4-1 1-2 0-3-3-4-7-3-20-3-29 0l-6 1-5 1-6 2-5 1-6 2-6 2-4 1-5 2-5 1-7 2c-7 2-30 2-36 0-1 0-2-1-2-3l8-5 2-1 4-2 3-2 4-2 4-1 3-2 3-1 4-2 5-1 4-2a82 82 0 0 0 10-3l8-1c9-2 22-3 33-2m-5 35c-4 0-9 3-9 6s1 3 6 1l7-1c6 0 8-1 5-4-3-2-5-3-9-2m5 0 3 2c3 3 2 3-5 4l-7 1c-3 1-4 1-4-1s0-2 3-4c4-2 7-3 10-2m-47 5c4 2 6 4 5 6h-7c-5-1-10 0-14 3-3 2-5 2-6 0-2-2 2-7 6-9l3-1c2-2 9-2 13 1m42 14c-4 1-6 5-6 13v5c-1 1-2-1-2-2l-2-3-1-6c-1-5-3-6-5-2-1 6 1 15 5 20 6 6 7 11 3 15-4 3-12 4-18 2 0 0-2 2-1 3l2 2 3 2h11l3-2c9-4 11-10 9-17 0-2-3-6-5-7v-1l-1-2c-1-2 1-2 2 0l3 1c7-1 10-15 5-20l-5-1m4 2c6 4 3 17-3 18-9 1-9-17 0-19l1-1 2 2m-16 4c1 6 3 11 6 14l1 2 3 3c6 9 4 17-6 22l-3 1h-11l-2-1c-3-2-3-2-3-4h5c14 2 21-6 13-16-5-7-6-9-7-16 0-6 3-11 4-5m-38-1c-5 3-6 16 0 19 6 2 10-3 10-11 0-7-5-10-10-8m7 1c7 5 1 21-7 17-5-2-5-15 0-18 2-1 5 0 7 1m-81 16c-2 0-2 1 1 2 4 1 4 1 4 5 0 6 1 8 4 5l2-1h1c3 1 5 0 4-2-6-8-13-11-16-9m6 0 2 2 7 7c1 2-1 2-3 2l-2-1-1 2c-2 2-4 0-4-5 0-4 0-5-3-6-2 0-2 0-1-1h5m65 31c-3 1-1 6 3 8l8 3c5 2 21 3 28 1 8-1 13-8 8-10l-2 1-4 2-1 1 5-3 3 1c2 1-3 6-8 7-7 2-25 2-30-1l-4-1c-3-2-7-4-7-6 0-3 3-3 10 1 5 3 20 4 26 3 5-1 5-2-1-1h-14l-10-2-4-2-3-1-1-1h-2m-37 29-2 2c-7 1-15 3-18 5a124 124 0 0 0-15 8l-3 2a171 171 0 0 0-44 54c-5 10-3 21 6 35a1786 1786 0 0 1 19 30l3 9 8 7 1 2v1h-2c-7 1-5 7 3 10 6 2 11-3 11-11l2-5c2-2 3 0 3 7l1 6v1l1-1 2-1c3 0 6-11 4-16 0-2 0-3 2-3s3 4 3 9c0 3 1 3 3 3 5-2 5-13 0-22-5-10-11-16-19-17-3-1-4-2-6-9l-2-5-2-4a66 66 0 0 0-9-14l-1-2 1-1h2c4 1 5 0 13-5a79 79 0 0 0 7-6l11-9c6-6 6-6 8-5l1 1-1 2c-1 4-9 12-13 15-5 3-11 10-11 12v1l-1 1v1c1-1 1 0 1 3l2 5 1 4 1 2 1 3c0 3 2 4 4 6l4 2 3 2a40 40 0 0 1 10 12c2 3 4 10 4 18 0 10-5 16-13 18l-3 2-4 2-2 1-5 1-5 1-8 2h-8v2l-1 3-1 1-1 2v18l2 1 1 3v1a314 314 0 0 1 3 1l2 2 1 1v1l2 1h3c1 0 2 1 2 3h2a237 237 0 0 1 11 1c3 2 3 2 2 7s-2 12-2 30l-2 18v8h5a38 38 0 0 1 12-7l5-2c7-1 8-1 8-6l1-5a261 261 0 0 0 6-25c0-6 2-9 5-7 1 1 1 12-1 15l-2 5-1 6c-3 8-3 18-1 20l9 10 6 9 3 4 2 2 1 4 2 4c3 5 0 14-7 17l-2 2-4 1-4 2c-4 1-20 2-24 0a522 522 0 0 0-12-5c-6-3-15-11-18-17-3-5-3-11 0-16l2-5 4-14c2-4 2-26 0-29s-13-2-13 1l-7 1-1 1-1 1-3 1h-3c0 3-1 3-6 3 0 0-1 0 0 0 0 2-1 3-2 3l-5 2-1 1-2 2-2 1-1 2-2 1-2 2v2l-3 1v2c-2 0-3 1-3 4l-1 2-2 1-1 10-1 2c0 1 0 0 0 0l2-2-1 2v6l1 1-2-2-1-1 1 1 1 2v6c-3 1-3 20 0 20 1 0 1 0 0 0v1l1 3c0 5 0 5 2 6l1 1a334 334 0 0 0 2 5l1 2 2 1 2 2v1c2 0 3 1 3 2l2 2h1c0 2 1 3 3 3h2c-1 1 2 3 3 3l2 1 4 2 2 1 2 2 5 1v1h2l3 1c3 0 4 1 3 2h1l6 1c2 0 6 2 5 3h1c8 0 9 0 10 2 1 1 3 2 10 2h5l1 1 1 1h1l11 1 11 1 2 1a121 121 0 0 0 33-1h1l12-1a99 99 0 0 0 14-1l2-1 11-2h1l1-1c0-1 1-2 6-2h5c0-2 2-3 5-3 4 0 5 0 6-2l4-1 4-2 2-1 4-2 1-1 1 1 1-1h2v-2l1-1h1l2-1h2v-1l1-1 2-2 2-2 1-1 2-2 2-1 1-2 2-2 1-1h1v-1l1-3c0-2 1-3 3-3v-5l1-5 1-1h-1v-1l1-2 1-2-1-10 1-1h-1v-1l-1-2v-9c1-1 0-3-1-4v-11l-1-1h-1l-1-2a229 229 0 0 0-2-4l-1-2-1-1-3-1c1-2 0-2-2-3l-1-1-1-1-2-2c0-1-2-2-5-2l-1-1-2-2h-2l-1-1v-1h-1l-3-1c-1 0-2 0-3-2l-4-1-3-1-2-2a1005 1005 0 0 0-8-2c-1-1-4-2-9-2h-4l-4-2-1 1-1 2c-2 2-3 6-1 7l1 1 2 2 4 2 3 2 3 2 1 1 4 1 3 2 2 1 4 2 3 2 2 1 2 2 2 2 2 2 1 2c3 2 3 16 0 20a45 45 0 0 1-8 7l-3 2-3 2a40 40 0 0 1-28-2l-4-1-5-2-5-2-4-1-4-1-4-2-4-2-3-1-4-2-2-1c-2-2-6-7-6-9l2-6c2-5 3-5 3-8l2-12v-11c-2-3-2-6-2-14 0-2 1-3 3-2s2 1 3 7c0 8 1 8 0 0-1-7-1-7 4-10l4-1 7-9c2-2 2-3 9-3l6 1c2 2 1 21 0 28l-1 8c-1 6 0 5-5 8-2 2-5 4-5 6l-4 4-3-1-4-1-3-3-2-2v-4l-2-12-1-1 1 4c1 3 2 6 1 10v3l2 2c2 3 10 6 11 5 2 0 3-1 4-4 1-2 3-4 7-6 3-3 4-4 4-9v-6l2-22c0-7 0-8 3-8h3c4 2 9 1 10-1l2-1 2-2 1-1c2 0 2 0 2-2l1-1c2 0 2-1 2-18 0-16-1-19-2-19h-1v-7a4138 4138 0 0 0-2-11l-1-5c0-5-1-6-3-7v-4l-1-3v-1c-2-1-2-3-1-3 2-1 2-9 0-12-2-4-2-6-1-9 2-4 2-4 5 0a135 135 0 0 0 25 23c3 1 4 4 5 8l1 5c2 4 5 7 7 8 3 2 4 4 5 7 0 6 6 10 9 7s3-4 2-11c-3-11-2-16 1-13l2 1a63 63 0 0 1 9 10l2 4 2 4v6c1 6 2 7 5 5 2-2 3-4 2-5v1l-4 4c-1 0-2-2-2-6l-1-7-2-4c-1-5-13-16-15-14v15c1 5 1 7-1 9-3 3-9-1-9-7 0-2-1-4-3-5-6-3-9-8-10-14 0-4-2-8-4-8a109 109 0 0 1-27-25c-1-3-1-4 1-14a121 121 0 0 0-1-42l-2-13-1-8-2-9c-3-9 0-11 6-3l6 11 1 4 2 5 1 5 2 6 1 7 2 5 1 6 2 6c1 3 1 5 4 9l4 6a191 191 0 0 1 12 16l3 4a90 90 0 0 0 24 22l4 4c7 6 8 10 9 22v5-5c0-13-3-18-13-26a577 577 0 0 1-22-20 374 374 0 0 0-20-27c-3-4-4-7-5-11l-1-5-2-7a165 165 0 0 0-4-15 105 105 0 0 0-5-16 35 35 0 0 0-13-18c-3-3-5-2-13 4l-5 4c-4 2-6 5-7 12a84 84 0 0 1-21 32 85 85 0 0 1-24 18 136 136 0 0 1-26 11c-5 2-14 1-16-1-3-3-1-6 2-4h11a80 80 0 0 0 27-12l8-5c9-6 16-12 21-19 6-9 11-17 12-22l1-3h-1l-10-1c-2 1-1 1 3 1 8-1 9 0 5 8a108 108 0 0 1-23 30 90 90 0 0 1-22 14l-3 2-3 1-4 2-11 3c-8 2-16-1-16-6l3-5c3-2 8-10 8-12-1-3-3-2-10 4a210 210 0 0 1-24 19c-1 1-4 2-6 1-2 0-3 0-4 2l6 9 1 3 2 3 1 2 2 4 2 5c1 5 3 8 5 8l9 3c1 1 7 6 7 8l2 3 2 3 1 2c4 6 3 18-2 19h-1v-2c-1-8-2-9-4-10-3 0-3 1-2 5 2 5-1 13-5 15-2 1-2 0-2-5 0-7-1-9-4-7l-2 1c0 10-2 13-7 14-4 1-12-3-11-5 1-3 2-3 4-3l3-1c0-2 0-2-3-4-7-5-9-8-9-15l-1-6a702 702 0 0 1-23-33c-7-11-5-23 4-36l3-4a193 193 0 0 1 41-44l4-2 3-2 3-1 4-2 15-4 4-1c2-2 4-1 8 2a83 83 0 0 0 24 11l6 2 5 1h3-3l-4-2-6-1-5-2-4-1-4-2-4-1-3-2-3-2-1-1-2-1-2-2h-6m90 7a674 674 0 0 0 6 26l1 10 2 11 1 15v10l-2 6c-3 13-11 22-22 26l-4 1-8 2-9 2a146 146 0 0 1-60-8l-4-2-3-1c-6-3-11-10-12-16 0-4 0-5 2-7l1-1 2 1c4 4 5 4 12 4l11-1 5-2 3-1 4-2 3-1 3-2 3-1 3-2 3-2 3-1 1-2 4-2 2-1 1-1 2-2a306 306 0 0 1 10-9 70 70 0 0 0 12-16l2-3 1-3 2-3 4-12 5-6 8-5c1-1 2-1 2 1m-41 10h3-3m33 21-2 4-2 5-1 4-2 5-1 5-2 3-6 13c-3 5-9 14-14 18-2 2-2 5 0 4l2-1a55 55 0 0 0 16-17 114 114 0 0 0 14-34c1-6 0-14-2-9m-94 74 5 2 4 1 5 2 6 2 10 2 8 1a157 157 0 0 0 39-1 51 51 0 0 0 13-4l10-5c2-2 4 2 2 5a23 23 0 0 1-9 8l-4 2-5 1a162 162 0 0 1-75-1c-2 0-4-2-5-5l-9-9v-2l5 1m103 19 1 2 2 7 2 5 1 9 1 5 3 20 1 11-1 2c-2 6-14 11-26 11-2 0-4-2-4-3l1-7 2-8a276 276 0 0 0 2-51l10-5 3-1 1 1 1 2m-85 5a677 677 0 0 1 23 5l-1 5-1 6-2 5-2 6-1 5-1 3-1 5 1-1c0-2 1-3 2-3l2-4 2-2 1-4 2-3 2-5 1-4 1-5c2-7 1-6 12-7a94 94 0 0 0 14-1c10-2 10-2 10 5a356 356 0 0 1-8 69c-2 3-7 5-12 6l-6 1a111 111 0 0 1-61-9l-3-1a76 76 0 0 1-13-6c-9-5-11-8-11-15 0-10 2-14 6-14l3-1 6-1c3-1 10-3 10-5l4-2 8-4c5-6 6-11 5-20 0-4 0-6 2-5l6 1m158 13v4l-1 6c-1 6 2 8 5 5 2-3 1-14-1-14l-2-1h-1m2 2c3 0 4 10 2 12-4 3-6 1-4-4v-7l1-2 1 1m16 6v1-3 2m-234 21h-1l1-1v1m33 37 5 2 4 1 5 2 6 2 4 1c4 0 4 1 4 5l-1 11-2 5-1 8-2 7c-1 7-1 7-8 8l-5 1-12 7h-4l-1-6c2-3 2-6 2-21 0-18 1-27 4-32 1-2 1-2 2-1m63 9c3 1 4 8 1 9-4 2-25 2-28 0v-6c0-2 1-3 12-2a100 100 0 0 0 15-1m-17 16 10-1 10 1c2 2 3 8 1 10l-2 13c0 3-1 5-3 8-2 4-2 8 1 12a36 36 0 0 0 12 7l5 2 2 1 5 2a42638 42638 0 0 1 24 9c7 2 19 1 26-2 5-3 12-9 13-13v-15c-2-5-7-10-13-13l-3-2-3-1-3-2-4-2-2-1-3-2c-5-2 1-4 7-2l6 2 5 2 4 1 3 1 3 2 4 2 2 1 3 2 3 2 1 1a62 62 0 0 1 8 8l2 4 1 4v10l-1 4-2 4-2 2-5 6-7 5-2 1-2 1-3 2-4 2-3 1-4 2-4 1-5 2-5 1-6 2-7 2-8 1-7 2-16 2-13 1a196 196 0 0 1-64-5l-7-1-5-2-5-2-5-1-4-2-4-1-4-2-4-1-3-2-3-2-2-1-2-1-6-5c-4-4-9-9-10-12l-1-4v-10l1-4 2-3 1-2 7-7 6-5 2-1 3-2 4-2 3-1 4-2 5-1 3-1 8-2c3 0 3 1 3 9 0 7 0 7-4 16l-2 8-2 5c-5 10-1 20 11 29a49 49 0 0 0 10 7l9 3a47 47 0 0 0 37-5c6-3 8-11 5-19l-2-3c0-2-3-6-6-9l-4-6c-2-5-3-6-6-9l-5-4c-2-2-1-12 1-18l1-6c2-7 3-7 15-6m79 24c-5 0-5 0-8 2-7 4-13 16-10 19 3 5 24 7 27 3 0-1-3-5-6-6-2-1-2-2 0-3 2 0 5 1 7 3 3 3 6 1 4-3l-4-3v-3l6 3 1 1 1-1c2-1 2-4 0-6l-2-2-1-1-3-1c-2-2-8-3-12-2m-55 0c-2 5 1 10 9 14 6 3 9 2 9-3 0-4-1-4-3-5l-3-1-3-2-4-2c-2-1-4-2-5-1m62 0 10 6c3 3 2 8-1 5-1-1-5-3-6-2-2 0-2 2 0 3l5 5c0 2-4 2-5 0-2-2-8-4-9-2 0 2 0 3 2 4l4 3 1 2h-1c-4 3-23 1-25-3-1-2 0-6 2-10 5-9 12-12 23-11m-57 2 3 2 9 3v7c-2 3-14-3-16-7l-1-6c1-1 4 0 5 1m-50 21a49 49 0 0 0-16 5c-3 0-11 9-11 11s6 7 11 8l3 2c4 2 8-1 5-5v-6l5 5c1 5 3 7 6 6 4-1 5-3 4-6-2-8 2-8 6-1 1 3 1 3 3 3 5-2 6-5 4-10-4-8-11-13-20-12m7 1c4 1 5 2 8 5s6 8 6 10l-4 5c-3 0-3 0-4-2l-6-6-2 1c2 3 2 9 1 10-3 3-7 2-8-3-2-4-6-8-7-5l1 5c2 4-1 6-6 4l-3-1-8-6-1-2 1-2c5-9 21-16 32-13m150 10-1 1v-1h1m-245 9a409 409 0 0 1 15 11l4 2a260 260 0 0 1 14 6l3 2 5 1 5 2 5 2 5 1 6 1 9 2a269 269 0 0 0 137-14 90 90 0 0 0 24-15l2-1v1c2 4-2 16-6 22a53 53 0 0 1-12 11 104 104 0 0 1-35 14l-5 1-8 2a317 317 0 0 0-18 3c-33 3-32 3-55 1a119 119 0 0 1-28-4l-6-2-6-1-6-2-5-1-4-2-4-1-4-2-3-1a75 75 0 0 1-17-10c-4-2-10-10-11-14l-2-4v-12l1 1m206 50-1 1 2-2-1 1m-43 13h-2l2-1v1"/><path fill="#f7efd0" d="m245 97-6 2-6 1-6 2-6 2-4 1-5 2-5 1-4 2h-3l-2 1 2 1 4 3c3 2 4 5 2 7l-1 1-5-1c-6-1-10 0-14 2-5 3-9 2-8-2l2-4 1-1 2-2c2-1 1-1-12-2-13 0-12 0-12 7l-1 7-1 6-2 5-1 4-2 4-2 2-4 7c-1 1-3 1-5-1a163 163 0 0 0-11-11c-6-6-15-4-17 4-3 11 1 22 10 28l3 2c2 2 9 3 12 2h4l3 6a64 64 0 0 0 6 9 71 71 0 0 0 39 25l6 1 11 1c10 0 13-1 22-5a78 78 0 0 0 24-26l1-3 2-5 2-5c2-4 2-22 0-29-2-5-2-7-2-28l-1-21v-1l-10-1m4 13c6 3 6 7-1 6-4 0-6 0-9 2-4 2-6 0-5-4 1-3 12-6 15-4m-106 1-2 1-3 1-3 2-2 1-3 2-2 1-3 2-2 1-3 2-2 2-2 2c-1 2 0 3 3 3 4-1 9 0 10 1l3 1 3 2 2 2 1 1 2 2 1 1 1 2 2-2 2-4 2-6c1-2 2-18 1-20h-6m104 19c3 2 4 3 4 8 0 8-3 12-10 12-2 0-2 1 0 4 7 9 5 17-5 22l-4 2h-11l-3-1c-3-3-4-4-2-6h15c7-4 8-8 4-14l-6-7c-3-4-3-16 0-18l1-1v1l2 4c0 3 1 4 2 5l1 3 1 3 1-7c0-7 3-11 8-12l2 2m-49 3 5 4v12c-6 11-18 2-13-11 1-3 1-3 4-4l4-1m40 15 1 1h1l-2-1m-113 2 11 11c0 1-3 2-5 1-1 0-2 0-3 2-3 2-5 0-5-5 1-5 0-6-4-6-2-1-3-1-2-2 1-2 6-2 8-1m72 34 4 2c2 1 6 2 14 2 7 1 15 0 19-3h5l1 1-1 2c-3 6-15 9-30 7-10-2-17-5-20-9-3-3 1-6 5-3l3 1m-43 28-3 1a109 109 0 0 0-28 11l-2 1c-7 4-12 9-21 18a233 233 0 0 0-28 38l-2 4c-3 5-1 15 3 23a612 612 0 0 1 10 16 222 222 0 0 1 7 9 790 790 0 0 1 7 10c0 10 1 13 8 18 4 3 5 3 4 6l-3 1c-5-2-4 4 1 6 7 3 12 0 12-9 1-5 1-5 3-6 3-1 4 2 4 9 0 4 0 4 3 3s5-11 4-14c-2-3-1-6 1-6 3 1 4 2 4 7 1 6 1 5 3 5 3 0 4-10 1-17l-2-4c-3-8-9-12-16-15-7-2-7-2-8-8l-2-6-2-3-1-3-2-3-4-7c-3-3-4-5-3-6l4-1a9190 9190 0 0 1 39-26c3 1-1 9-6 14-3 2-3 6-1 9 1 2 8 3 12 2a82 82 0 0 0 27-11l3-2 3-1a80 80 0 0 0 29-31l7-13c0-2 0-2-9-2a66 66 0 0 1-24-4l-6-1-3-2-4-1-4-2-3-2-2-1-2-1c-4-4-6-4-8-3m97 5 1 5 2 8 1 6 2 12 1 11c2 8 2 34 0 39-3 9-2 10 2 15a162 162 0 0 0 27 26l2 9c1 3 6 8 7 8 2 0 4 4 4 6 0 6 6 10 9 7 2-2 2-4 1-8-2-15-2-20 3-16l8 7 5 8 1 3 1 7 1 6 5-4c1-5 0-21-2-26l-1-3-4-5a51 51 0 0 0-10-8l-4-3a143 143 0 0 1-30-36l-5-7-2-3-1-5-2-5-1-6-2-6-1-6-2-6-1-5-2-6-2-4c0-3-6-13-8-13l-1-2h-2m68 146-1 3-1 3c-1 5-1 6 2 6 2-1 3-3 3-8-1-5-2-5-3-4m-91 58a403 403 0 0 0-6 2c-1 4-5 8-7 9l-3 1-3 1c-3 1-3 1-3 7l2 12 1 7c0 8 0 7 2 9l4 3 4 1 1 1 2-1 2-3 8-8c2-1 2-1 3-7v-8l2-17c0-8 0-9-2-9h-7m-96 7-3 12v17l-2 24c-2 4 1 8 4 5a33 33 0 0 1 11-7l4-1 5-1c3 0 4-2 5-8l1-7 2-5 2-11v-10l-4-1-6-2-5-1-5-2-8-2h-1m65 11v2l2 2v-2c0-2 0-3-2-2m-27 0v3l2-2c0-1-1-2-2-1m-3 15-1 2-2 9c-2 7-2 15 0 16 3 1 9 9 11 13l3 4a40 40 0 0 1 8 13c2 3 2 11 2 14-1 2-4 5-7 6l-3 2-3 2-4 1c-4 3-24 3-30 0l-4-1-3-2-3-2a62 62 0 0 1-17-15c-3-4-3-14 0-20l2-5 1-5 4-11v-14l-1 2a181 181 0 0 1-1 8 2311 2311 0 0 0-4 17l-2 5-2 5-1 3v9l1 3 2 4 1 2a31 31 0 0 0 9 9l2 1 2 2 1 1 5 3 2 1h2c2 2 4 2 7 3l6 1h14l4-1 7-2 3-1 4-3h1l3-3 1-1c3-1 3-20 0-21l-1-2-2-4-2-2-1-1-1-1-3-4-1-2-1-3-2-1c0-2-4-6-7-8s-3-7-1-10l2-8 1-6 1-2h-2m32 0v8l-1 3c-2 1-2 3-2 8 0 6-1 7-2 7-2 1-2 13 0 15l2 1 1 2 2 1 4 2 2 1c1 2 1 2 4 2l3 1c1 2 2 2 5 2l4 2 4 1 5 2 6 2 3 1 5 2 6 1c3 2 11 2 13 0l3-1c4 0 6-1 6-2l2-1 3-2 3-2 2-3 1-1 3-4 1-2 1-1v-6l-1-9-1-2-2-2-3-4-2-1-2-1-1-1c0-1 0-2-2-2l-2-1-4-2-4-2-6-3c-2 0-1 1 1 2l3 2 3 1 3 2 3 1 3 2 2 2c3 1 8 7 9 9 2 5 1 16-2 20a34 34 0 0 1-8 7c0 1-8 5-11 5-8 1-16 1-21-2l-5-1-4-1-5-2-5-2-4-1-4-2-4-1-4-2-2-1c-10-4-15-13-11-19 2-2 3-5 3-8v-4c3-10 4-15 2-16h-1m57 22-3 1-2 1c-2 1-6 5-7 8l-2 3c-3 6 0 9 9 11 14 2 20-1 11-6-3-1-3-2-2-4s8 0 9 2l3 1 1-1-1-1-1-2-2-1c-2-1-3-6-1-5l7 3 2 1c1 0 1-4-1-5l-1-2c-2-3-13-6-19-4m-52 2c0 3 5 9 7 9l4 2 4 1 2-1v-3c0-3 0-4-4-5l-3-1-2-1-3-2-3-1h-2v2m-51 22c-11 2-21 11-19 16l2 2 2 1 6 3 3 1c2 2 5-1 4-3l-1-4-1-2 1-1c2-2 5 1 7 6 1 3 3 5 5 4 4-1 5-4 2-10-2-6 5-3 8 3l1 3 2-1 4-2 1-2-2-3c-3-10-12-14-25-11"/><path fill="#d3eef7" d="M132 44v1l1-1h-1m129 367v1l1-1h-1m-3 4c0 1 0 1 0 0l1-1-1 1m-68 22h-11c-6 0-9 1-7 2 1 0 1 1-1 3l-1 1h28l-1-2v-4h-7m7 15h-22c-5 0-8 1-6 2l-1 2-1 6-2 8c-2 3-2 8 1 10s7 6 7 8l2 1 1 3 1 2 3 4 1 1 1 1 2 2 2 4 1 2c3 1 3 20 0 21l-1 1-3 3h-1l-4 3-3 1-7 2-4 1h-14l-6-1c-3-1-5-1-7-3h-2l-2-1-5-3-1-1-2-2-2-1-2-2-7-7-1-2-2-4-1-3v-9l1-3 2-5 2-5 1-6 3-11v-2l2-7v-2h-2l-3 1-6 2-5 1-4 2-3 1-4 2-3 2-3 2-2 1-2 1-10 10c-3 6-4 18 0 22l1 3a51 51 0 0 0 20 16l4 2 4 1 3 2 5 1 5 2 5 2 5 1 6 2 8 1 7 2a293 293 0 0 0 120-11l6-2 3-1 3-2 3-1 2-2 3-2 3-1 1-1c4-2 11-11 12-15 2-10 0-16-7-24a65 65 0 0 0-19-12l-4-2-4-2c-3-1-10-2-11-1l3 1 3 2 4 2 4 2 2 1c2 0 2 1 2 2l1 1 2 1 2 1 3 4 2 2 1 2 1 9v6l-1 1-1 2-3 4-1 1-2 3-3 2-3 2-2 1c0 1-2 2-6 2l-3 1c-2 2-10 2-13 0l-6-1-5-2-3-1-6-2-5-2-4-1-4-2c-3 0-4 0-5-2l-3-1c-3 0-3 0-4-2l-2-1-4-2-2-1-1-2-2-1c-2-2-2-14 0-15 1 0 2-1 2-7 0-5 0-7 2-8l1-3v-8c1-1 0-2-2-2m58 9h1-1c-1 0-1 0 0 0M73 527h4l-2-1-2 1m0 2h2l1-1h-1l-2 1m10 4 2 1h1c0-1-2-2-3-1m206 1h1v-1l-1 1m-213 0h2c1 0 1 0 0 0h-2m208 2-2 1h3c2-1 2-1-1-1m-204 2v1l2-1h-2m202 0h2c1 0 1 0 0 0h-2m-185 2h1v-1l-1 1m179 0h1v-1l-1 1m-193 1c-1 1-1 1 1 1h1l-1-1h-1m11 1-1 2h5l-1-1-1-1c1-2-1-1-2 0m197 0h1-1m-188 1c-1 1-1 1 2 1l3-1-2-1-3 1m164 0 3 1c3 0 3 0 2-1l-3-1-2 1m-172 2c-1 0-1 1 1 1v-1h-1m18 1h-11c-11 0-12 0-11 1l1 1h1c1 0 2 0 0 0h-1l1-1h13l11-1c1 0 1 0 0 0l-2-1-2 1m144 0c1 0 0 0 0 0l-1 1h14l14 1c1 1 2 1 2-1v-1h-12a62 62 0 0 1-14-1l-3 1m-131 3 1 1-1-2v1m119 0h5-5m-148 2-1 1h2c2 0 2-1 1-2l-2 1m182 0v1l1-1v-1l-1 1m-173 1h-1l-3 3h3c4 0 5 0 6 2l2 1h2l1-2c0-2-1-3-3-3l-3-1c-1-1-3-2-4 0m10 0h2v-1l-2 1m18 1c0 1 0 2 1 1h3l3-1c4-1 2-1-2-1h-5v1m92-1c1
2 9 2 11 0h-11m46 1c-3 1-3 2 0 2 2 0 2 0 2-2h-2m-114
2h13-13m35 0c-1 2 19 2 22 1l2-1h-16 3c1 0 2 0 1 1h-4c-2-1-7-2-8-1m70
2c-1 1 0 1 2 1l2-1h-4m-143 3 4 1h4c0-1-7-2-8-1m131 0c-1 1-1 1 1
1l6-1h-7m-120 2c-1 2-1 2 3 2 3 0 3-1 0-1l-1-1h1c2 0 3 1 3
2h4c1-1 0-1-1-1l-2-1h-7m110 1-1 1 1-1 4-1h1c-2-1-4 0-5 1m-47-1h2-2m48
 2h4-4m-48 0 2 1c1-1 0-1-1-1h-1m-50 2c0 1 9 2 9 0h-9m50 0h2-2m29 0c-2
 1-1 1 4 1l4-1h-8m-52 3-2 1h39l-4-1h-4l-14-1h-13l-2 1m78 8-1 1
 2-1h-1m-79 7 1 1-1-1c-1-1-2-1 0 0"/></g></svg>